<svg version="1.1" xmlns="http://www.w3.org/2000/svg" xmlns:xlink="http://www.w3.org/1999/xlink" width="513" height="340"><defs/><g><g transform="translate(-46,-230) scale(1,1)"><rect fill="#C0C0C0" stroke="none" x="337" y="319" width="134" height="80" opacity="0.2"/></g><g transform="translate(-46,-230) scale(1,1)"><rect fill="#ffffff" stroke="none" x="330" y="312" width="134" height="80"/></g><g transform="translate(-46,-230) scale(1,1)"><path fill="none" stroke="#000000" d="M 330 312 L 464 312 L 464 392 L 330 392 L 330 312 Z Z" stroke-miterlimit="10"/></g><g transform="translate(-46,-230) scale(1,1)"><rect fill="#ffffff" stroke="none" x="320" y="319" width="20" height="10"/></g><g transform="translate(-46,-230) scale(1,1)"><path fill="none" stroke="#000000" d="M 320 319 L 340 319 L 340 329 L 320 329 L 320 319 Z Z" stroke-miterlimit="10"/></g><g transform="translate(-46,-230) scale(1,1)"><rect fill="#ffffff" stroke="none" x="320" y="339" width="20" height="10"/></g><g transform="translate(-46,-230) scale(1,1)"><path fill="none" stroke="#000000" d="M 320 339 L 340 339 L 340 349 L 320 349 L 320 339 Z Z" stroke-miterlimit="10"/></g><g transform="translate(-46,-230) scale(1,1)"><g><path fill="none" stroke="none"/><text fill="#000000" stroke="none" font-family="Arial" font-size="15px" font-style="normal" font-weight="bold" text-decoration="none" x="386.71435546875" y="333.5">Web</text></g></g><g transform="translate(-46,-230) scale(1,1)"><path fill="#ffffff" stroke="none" d="M 456 240 L 514 240 L 524 250 L 524 278 L 456 278 L 456 240"/></g><g transform="translate(-46,-230) scale(1,1)"><path fill="none" stroke="#000000" d="M 456 240 L 514 240 L 524 250 L 524 278 L 456 278 L 456 240 L 456 240" stroke-miterlimit="10"/></g><g transform="translate(-46,-230) scale(1,1)"><path fill="none" stroke="#000000" d="M 514 240 L 514 250 L 524 250 L 514 240" stroke-miterlimit="10"/></g><g transform="translate(-46,-230) scale(1,1)"><g><path fill="none" stroke="none"/><text fill="#000000" stroke="none" font-family="Arial" font-size="13px" font-style="normal" font-weight="normal" text-decoration="none" x="461" y="258">Flask</text></g></g><g transform="translate(-46,-230) scale(1,1)"><path fill="none" stroke="#000000" d="M 435 311 L 468 280" stroke-miterlimit="10" stroke-dasharray="3"/></g><g transform="translate(-46,-230) scale(1,1)"><path fill="#C0C0C0" stroke="none" d="M 364.61328125 266.5 C 364.61328125 260.1487248 369.76200605 255 376.11328125 255 C 382.46455645 255 387.61328125 260.1487248 387.61328125 266.5 C 387.61328125 272.8512752 382.46455645 278 376.11328125 278 C 369.76200605 278 364.61328125 272.8512752 364.61328125 266.5 Z" opacity="0.2"/></g><g transform="translate(-46,-230) scale(1,1)"><path fill="#ffffff" stroke="none" d="M 357.61328125 259.5 C 357.61328125 253.1487248 362.76200605 248 369.11328125 248 C 375.46455645 248 380.61328125 253.1487248 380.61328125 259.5 C 380.61328125 265.8512752 375.46455645 271 369.11328125 271 C 362.76200605 271 357.61328125 265.8512752 357.61328125 259.5 Z"/></g><g transform="translate(-46,-230) scale(1,1)"><path fill="none" stroke="#000000" d="M 357.61328125 259.5 C 357.61328125 253.1487248 362.76200605 248 369.11328125 248 C 375.46455645 248 380.61328125 253.1487248 380.61328125 259.5 C 380.61328125 265.8512752 375.46455645 271 369.11328125 271 C 362.76200605 271 357.61328125 265.8512752 357.61328125 259.5 Z" stroke-miterlimit="10"/></g><g transform="translate(-46,-230) scale(1,1)"><g><path fill="none" stroke="none"/><text fill="#000000" stroke="none" font-family="Arial" font-size="10px" font-style="normal" font-weight="bold" text-decoration="none" x="342.443359375" y="287.5">Assign JWT</text></g></g><g transform="translate(-46,-230) scale(1,1)"><path fill="none" stroke="#000000" d="M 369 312 L 369 271" stroke-miterlimit="10"/></g><g transform="translate(-46,-230) scale(1,1)"><path fill="#C0C0C0" stroke="none" d="M 501.2099609375 332 C 501.2099609375 324.8202976 507.0302585375 319 514.2099609375 319 C 521.3896633375 319 527.2099609375 324.8202976 527.2099609375 332 C 527.2099609375 339.1797024 521.3896633375 345 514.2099609375 345 C 507.0302585375 345 501.2099609375 339.1797024 501.2099609375 332 Z" opacity="0.2"/></g><g transform="translate(-46,-230) scale(1,1)"><path fill="#ffffff" stroke="none" d="M 494.2099609375 325 C 494.2099609375 317.8202976 500.0302585375 312 507.2099609375 312 C 514.3896633375 312 520.2099609375 317.8202976 520.2099609375 325 C 520.2099609375 332.1797024 514.3896633375 338 507.2099609375 338 C 500.0302585375 338 494.2099609375 332.1797024 494.2099609375 325 Z"/></g><g transform="translate(-46,-230) scale(1,1)"><path fill="none" stroke="#000000" d="M 494.2099609375 325 C 494.2099609375 317.8202976 500.0302585375 312 507.2099609375 312 C 514.3896633375 312 520.2099609375 317.8202976 520.2099609375 325 C 520.2099609375 332.1797024 514.3896633375 338 507.2099609375 338 C 500.0302585375 338 494.2099609375 332.1797024 494.2099609375 325 Z" stroke-miterlimit="10"/></g><g transform="translate(-46,-230) scale(1,1)"><g><path fill="none" stroke="none"/><text fill="#000000" stroke="none" font-family="Arial" font-size="10px" font-style="normal" font-weight="bold" text-decoration="none" x="494.97607421875" y="354.5">Login</text></g></g><g transform="translate(-46,-230) scale(1,1)"><path fill="none" stroke="#000000" d="M 464 325 L 494.2099609375 325" stroke-miterlimit="10"/></g><g transform="translate(-46,-230) scale(1,1)"><path fill="#C0C0C0" stroke="none" d="M 501.2099609375 380 C 501.2099609375 372.8202976 507.0302585375 367 514.2099609375 367 C 521.3896633375 367 527.2099609375 372.8202976 527.2099609375 380 C 527.2099609375 387.1797024 521.3896633375 393 514.2099609375 393 C 507.0302585375 393 501.2099609375 387.1797024 501.2099609375 380 Z" opacity="0.2"/></g><g transform="translate(-46,-230) scale(1,1)"><path fill="#ffffff" stroke="none" d="M 494.2099609375 373 C 494.2099609375 365.8202976 500.0302585375 360 507.2099609375 360 C 514.3896633375 360 520.2099609375 365.8202976 520.2099609375 373 C 520.2099609375 380.1797024 514.3896633375 386 507.2099609375 386 C 500.0302585375 386 494.2099609375 380.1797024 494.2099609375 373 Z"/></g><g transform="translate(-46,-230) scale(1,1)"><path fill="none" stroke="#000000" d="M 494.2099609375 373 C 494.2099609375 365.8202976 500.0302585375 360 507.2099609375 360 C 514.3896633375 360 520.2099609375 365.8202976 520.2099609375 373 C 520.2099609375 380.1797024 514.3896633375 386 507.2099609375 386 C 500.0302585375 386 494.2099609375 380.1797024 494.2099609375 373 Z" stroke-miterlimit="10"/></g><g transform="translate(-46,-230) scale(1,1)"><g><path fill="none" stroke="none"/><text fill="#000000" stroke="none" font-family="Arial" font-size="10px" font-style="normal" font-weight="bold" text-decoration="none" x="491.9169921875" y="402.5">Logout</text></g></g><g transform="translate(-46,-230) scale(1,1)"><path fill="none" stroke="#000000" d="M 464 373 L 494.2099609375 373" stroke-miterlimit="10"/></g><g transform="translate(-46,-230) scale(1,1)"><rect fill="#C0C0C0" stroke="none" x="345" y="503" width="126" height="64" opacity="0.2"/></g><g transform="translate(-46,-230) scale(1,1)"><rect fill="#ffffff" stroke="none" x="338" y="496" width="126" height="64"/></g><g transform="translate(-46,-230) scale(1,1)"><path fill="none" stroke="#000000" d="M 338 496 L 464 496 L 464 560 L 338 560 L 338 496 Z Z" stroke-miterlimit="10"/></g><g transform="translate(-46,-230) scale(1,1)"><rect fill="#ffffff" stroke="none" x="328" y="503" width="20" height="10"/></g><g transform="translate(-46,-230) scale(1,1)"><path fill="none" stroke="#000000" d="M 328 503 L 348 503 L 348 513 L 328 513 L 328 503 Z Z" stroke-miterlimit="10"/></g><g transform="translate(-46,-230) scale(1,1)"><rect fill="#ffffff" stroke="none" x="328" y="523" width="20" height="10"/></g><g transform="translate(-46,-230) scale(1,1)"><path fill="none" stroke="#000000" d="M 328 523 L 348 523 L 348 533 L 328 533 L 328 523 Z Z" stroke-miterlimit="10"/></g><g transform="translate(-46,-230) scale(1,1)"><g><path fill="none" stroke="none"/><text fill="#000000" stroke="none" font-family="Arial" font-size="13px" font-style="normal" font-weight="bold" text-decoration="none" x="366.619140625" y="515.5">Session store</text></g></g><g transform="translate(-46,-230) scale(1,1)"><path fill="#ffffff" stroke="none" d="M 480 448 L 538 448 L 548 458 L 548 486 L 480 486 L 480 448"/></g><g transform="translate(-46,-230) scale(1,1)"><path fill="none" stroke="#000000" d="M 480 448 L 538 448 L 548 458 L 548 486 L 480 486 L 480 448 L 480 448" stroke-miterlimit="10"/></g><g transform="translate(-46,-230) scale(1,1)"><path fill="none" stroke="#000000" d="M 538 448 L 538 458 L 548 458 L 538 448" stroke-miterlimit="10"/></g><g transform="translate(-46,-230) scale(1,1)"><g><path fill="none" stroke="none"/><text fill="#000000" stroke="none" font-family="Arial" font-size="13px" font-style="normal" font-weight="normal" text-decoration="none" x="485" y="466">Redis</text></g></g><g transform="translate(-46,-230) scale(1,1)"><path fill="none" stroke="#000000" d="M 460 495 L 479 485" stroke-miterlimit="10" stroke-dasharray="3"/></g><g transform="translate(-46,-230) scale(1,1)"><path fill="#C0C0C0" stroke="none" d="M 346.627685546875 452 C 346.627685546875 444.8202976 352.447983146875 439 359.627685546875 439 C 366.807387946875 439 372.627685546875 444.8202976 372.627685546875 452 C 372.627685546875 459.1797024 366.807387946875 465 359.627685546875 465 C 352.447983146875 465 346.627685546875 459.1797024 346.627685546875 452 Z" opacity="0.2"/></g><g transform="translate(-46,-230) scale(1,1)"><path fill="none" stroke="#000000" d="M 339 445 A 13 13 0 0 1 365 445" stroke-miterlimit="10"/></g><g transform="translate(-46,-230) scale(1,1)"><path fill="#ffffff" stroke="none" d="M 342.627685546875 445 C 342.627685546875 439.477152 347.104837546875 435 352.627685546875 435 C 358.150533546875 435 362.627685546875 439.477152 362.627685546875 445 C 362.627685546875 450.522848 358.150533546875 455 352.627685546875 455 C 347.104837546875 455 342.627685546875 450.522848 342.627685546875 445 Z"/></g><g transform="translate(-46,-230) scale(1,1)"><path fill="none" stroke="#000000" d="M 342.627685546875 445 C 342.627685546875 439.477152 347.104837546875 435 352.627685546875 435 C 358.150533546875 435 362.627685546875 439.477152 362.627685546875 445 C 362.627685546875 450.522848 358.150533546875 455 352.627685546875 455 C 347.104837546875 455 342.627685546875 450.522848 342.627685546875 445 Z" stroke-miterlimit="10"/></g><g transform="translate(-46,-230) scale(1,1)"><g><path fill="none" stroke="none"/><text fill="#000000" stroke="none" font-family="Arial" font-size="10px" font-style="normal" font-weight="bold" text-decoration="none" x="326.780517578125" y="474.5">Set session</text></g></g><g transform="translate(-46,-230) scale(1,1)"><path fill="none" stroke="#000000" d="M 352 496 L 352 458" stroke-miterlimit="10"/></g><g transform="translate(-46,-230) scale(1,1)"><path fill="#C0C0C0" stroke="none" d="M 428.022216796875 452 C 428.022216796875 444.8202976 433.842514396875 439 441.022216796875 439 C 448.201919196875 439 454.022216796875 444.8202976 454.022216796875 452 C 454.022216796875 459.1797024 448.201919196875 465 441.022216796875 465 C 433.842514396875 465 428.022216796875 459.1797024 428.022216796875 452 Z" opacity="0.2"/></g><g transform="translate(-46,-230) scale(1,1)"><path fill="none" stroke="#000000" d="M 421.151167930542 446.97674339530124 A 13 13 0 0 1 446.848832069458 443.02325660469876" stroke-miterlimit="10"/></g><g transform="translate(-46,-230) scale(1,1)"><path fill="#ffffff" stroke="none" d="M 424.022216796875 445 C 424.022216796875 439.477152 428.499368796875 435 434.022216796875 435 C 439.545064796875 435 444.022216796875 439.477152 444.022216796875 445 C 444.022216796875 450.522848 439.545064796875 455 434.022216796875 455 C 428.499368796875 455 424.022216796875 450.522848 424.022216796875 445 Z"/></g><g transform="translate(-46,-230) scale(1,1)"><path fill="none" stroke="#000000" d="M 424.022216796875 445 C 424.022216796875 439.477152 428.499368796875 435 434.022216796875 435 C 439.545064796875 435 444.022216796875 439.477152 444.022216796875 445 C 444.022216796875 450.522848 439.545064796875 455 434.022216796875 455 C 428.499368796875 455 424.022216796875 450.522848 424.022216796875 445 Z" stroke-miterlimit="10"/></g><g transform="translate(-46,-230) scale(1,1)"><g><path fill="none" stroke="none"/><text fill="#000000" stroke="none" font-family="Arial" font-size="10px" font-style="normal" font-weight="bold" text-decoration="none" x="401.226806640625" y="474.5">Delete session</text></g></g><g transform="translate(-46,-230) scale(1,1)"><path fill="none" stroke="#000000" d="M 434 496 L 434 458" stroke-miterlimit="10"/></g><g transform="translate(-46,-230) scale(1,1)"><path fill="none" stroke="#000000" d="M 352 392 L 352 432" stroke-miterlimit="10"/></g><g transform="translate(-46,-230) scale(1,1)"><path fill="none" stroke="#000000" d="M 432 392 L 432 432" stroke-miterlimit="10"/></g><g transform="translate(-46,-230) scale(1,1)"><rect fill="#C0C0C0" stroke="none" x="73" y="319" width="102" height="80" opacity="0.2"/></g><g transform="translate(-46,-230) scale(1,1)"><rect fill="#ffffff" stroke="none" x="66" y="312" width="102" height="80"/></g><g transform="translate(-46,-230) scale(1,1)"><path fill="none" stroke="#000000" d="M 66 312 L 168 312 L 168 392 L 66 392 L 66 312 Z Z" stroke-miterlimit="10"/></g><g transform="translate(-46,-230) scale(1,1)"><rect fill="#ffffff" stroke="none" x="56" y="319" width="20" height="10"/></g><g transform="translate(-46,-230) scale(1,1)"><path fill="none" stroke="#000000" d="M 56 319 L 76 319 L 76 329 L 56 329 L 56 319 Z Z" stroke-miterlimit="10"/></g><g transform="translate(-46,-230) scale(1,1)"><rect fill="#ffffff" stroke="none" x="56" y="339" width="20" height="10"/></g><g transform="translate(-46,-230) scale(1,1)"><path fill="none" stroke="#000000" d="M 56 339 L 76 339 L 76 349 L 56 349 L 56 339 Z Z" stroke-miterlimit="10"/></g><g transform="translate(-46,-230) scale(1,1)"><g><path fill="none" stroke="none"/><text fill="#000000" stroke="none" font-family="Arial" font-size="13px" font-style="normal" font-weight="normal" text-decoration="none" x="89.119140625" y="329.5">«stateless»</text></g></g><g transform="translate(-46,-230) scale(1,1)"><g><path fill="none" stroke="none"/><text fill="#000000" stroke="none" font-family="Arial" font-size="13px" font-style="normal" font-weight="bold" text-decoration="none" x="95.27001953125" y="344.5">File store</text></g></g><g transform="translate(-46,-230) scale(1,1)"><path fill="#C0C0C0" stroke="none" d="M 205.2099609375 332 C 205.2099609375 324.8202976 211.0302585375 319 218.2099609375 319 C 225.3896633375 319 231.2099609375 324.8202976 231.2099609375 332 C 231.2099609375 339.1797024 225.3896633375 345 218.2099609375 345 C 211.0302585375 345 205.2099609375 339.1797024 205.2099609375 332 Z" opacity="0.2"/></g><g transform="translate(-46,-230) scale(1,1)"><path fill="none" stroke="#000000" d="M 211 312 A 13 13 0 0 1 211 338" stroke-miterlimit="10"/></g><g transform="translate(-46,-230) scale(1,1)"><path fill="#ffffff" stroke="none" d="M 201.2099609375 325 C 201.2099609375 319.477152 205.6871129375 315 211.2099609375 315 C 216.7328089375 315 221.2099609375 319.477152 221.2099609375 325 C 221.2099609375 330.522848 216.7328089375 335 211.2099609375 335 C 205.6871129375 335 201.2099609375 330.522848 201.2099609375 325 Z"/></g><g transform="translate(-46,-230) scale(1,1)"><path fill="none" stroke="#000000" d="M 201.2099609375 325 C 201.2099609375 319.477152 205.6871129375 315 211.2099609375 315 C 216.7328089375 315 221.2099609375 319.477152 221.2099609375 325 C 221.2099609375 330.522848 216.7328089375 335 211.2099609375 335 C 205.6871129375 335 201.2099609375 330.522848 201.2099609375 325 Z" stroke-miterlimit="10"/></g><g transform="translate(-46,-230) scale(1,1)"><g><path fill="none" stroke="none"/><text fill="#000000" stroke="none" font-family="Arial" font-size="10px" font-style="normal" font-weight="bold" text-decoration="none" x="195.365234375" y="354.5">Upload</text></g></g><g transform="translate(-46,-230) scale(1,1)"><path fill="none" stroke="#000000" d="M 168 325 L 198.2099609375 325" stroke-miterlimit="10"/></g><g transform="translate(-46,-230) scale(1,1)"><path fill="#C0C0C0" stroke="none" d="M 205.552734375 388 C 205.552734375 380.8202976 211.373031975 375 218.552734375 375 C 225.732436775 375 231.552734375 380.8202976 231.552734375 388 C 231.552734375 395.1797024 225.732436775 401 218.552734375 401 C 211.373031975 401 205.552734375 395.1797024 205.552734375 388 Z" opacity="0.2"/></g><g transform="translate(-46,-230) scale(1,1)"><path fill="none" stroke="#000000" d="M 211 368 A 13 13 0 0 1 211 394" stroke-miterlimit="10"/></g><g transform="translate(-46,-230) scale(1,1)"><path fill="#ffffff" stroke="none" d="M 201.552734375 381 C 201.552734375 375.477152 206.029886375 371 211.552734375 371 C 217.075582375 371 221.552734375 375.477152 221.552734375 381 C 221.552734375 386.522848 217.075582375 391 211.552734375 391 C 206.029886375 391 201.552734375 386.522848 201.552734375 381 Z"/></g><g transform="translate(-46,-230) scale(1,1)"><path fill="none" stroke="#000000" d="M 201.552734375 381 C 201.552734375 375.477152 206.029886375 371 211.552734375 371 C 217.075582375 371 221.552734375 375.477152 221.552734375 381 C 221.552734375 386.522848 217.075582375 391 211.552734375 391 C 206.029886375 391 201.552734375 386.522848 201.552734375 381 Z" stroke-miterlimit="10"/></g><g transform="translate(-46,-230) scale(1,1)"><g><path fill="none" stroke="none"/><text fill="#000000" stroke="none" font-family="Arial" font-size="10px" font-style="normal" font-weight="bold" text-decoration="none" x="189.31640625" y="410.5">Download</text></g></g><g transform="translate(-46,-230) scale(1,1)"><path fill="none" stroke="#000000" d="M 168 381 L 198.552734375 381" stroke-miterlimit="10"/></g><g transform="translate(-46,-230) scale(1,1)"><path fill="none" stroke="#000000" d="M 320 325 L 224.2099609375 325" stroke-miterlimit="10"/></g><g transform="translate(-46,-230) scale(1,1)"><path fill="none" stroke="#000000" d="M 320 381 L 224.552734375 381" stroke-miterlimit="10"/></g><g transform="translate(-46,-230) scale(1,1)"><path fill="#C0C0C0" stroke="none" d="M 142.594970703125 268 C 142.594970703125 260.8202976 148.415268303125 255 155.594970703125 255 C 162.774673103125 255 168.594970703125 260.8202976 168.594970703125 268 C 168.594970703125 275.1797024 162.774673103125 281 155.594970703125 281 C 148.415268303125 281 142.594970703125 275.1797024 142.594970703125 268 Z" opacity="0.2"/></g><g transform="translate(-46,-230) scale(1,1)"><path fill="#ffffff" stroke="none" d="M 135.594970703125 261 C 135.594970703125 253.8202976 141.415268303125 248 148.594970703125 248 C 155.774673103125 248 161.594970703125 253.8202976 161.594970703125 261 C 161.594970703125 268.1797024 155.774673103125 274 148.594970703125 274 C 141.415268303125 274 135.594970703125 268.1797024 135.594970703125 261 Z"/></g><g transform="translate(-46,-230) scale(1,1)"><path fill="none" stroke="#000000" d="M 135.594970703125 261 C 135.594970703125 253.8202976 141.415268303125 248 148.594970703125 248 C 155.774673103125 248 161.594970703125 253.8202976 161.594970703125 261 C 161.594970703125 268.1797024 155.774673103125 274 148.594970703125 274 C 141.415268303125 274 135.594970703125 268.1797024 135.594970703125 261 Z" stroke-miterlimit="10"/></g><g transform="translate(-46,-230) scale(1,1)"><g><path fill="none" stroke="none"/><text fill="#000000" stroke="none" font-family="Arial" font-size="10px" font-style="normal" font-weight="bold" text-decoration="none" x="119.234619140625" y="290.5">Validate JWT</text></g></g><g transform="translate(-46,-230) scale(1,1)"><path fill="none" stroke="#000000" d="M 148 312 L 148 274" stroke-miterlimit="10"/></g><g transform="translate(-46,-230) scale(1,1)"><path fill="#ffffff" stroke="none" d="M 120 448 L 178 448 L 188 458 L 188 486 L 120 486 L 120 448"/></g><g transform="translate(-46,-230) scale(1,1)"><path fill="none" stroke="#000000" d="M 120 448 L 178 448 L 188 458 L 188 486 L 120 486 L 120 448 L 120 448" stroke-miterlimit="10"/></g><g transform="translate(-46,-230) scale(1,1)"><path fill="none" stroke="#000000" d="M 178 448 L 178 458 L 188 458 L 178 448" stroke-miterlimit="10"/></g><g transform="translate(-46,-230) scale(1,1)"><g><path fill="none" stroke="none"/><text fill="#000000" stroke="none" font-family="Arial" font-size="13px" font-style="normal" font-weight="normal" text-decoration="none" x="125" y="466">Spring</text></g></g><g transform="translate(-46,-230) scale(1,1)"><path fill="none" stroke="#000000" d="M 147 447 L 127 393" stroke-miterlimit="10" stroke-dasharray="3"/></g></g></svg>